<svg xmlns="http://www.w3.org/2000/svg" xmlns:xlink="http://www.w3.org/1999/xlink" width="1920" zoomAndPan="magnify" viewBox="0 0 1440 809.999993" height="1080" preserveAspectRatio="xMidYMid meet" version="1.0"><defs><filter x="0%" y="0%" width="100%" height="100%" id="c24001aebd"><feColorMatrix values="0 0 0 0 1 0 0 0 0 1 0 0 0 0 1 0 0 0 1 0" color-interpolation-filters="sRGB"/></filter><g/><mask id="0bc4996450"><g filter="url(#c24001aebd)"><rect x="-144" width="1728" fill="#000000" y="-80.999999" height="971.999992" fill-opacity="0.4"/></g></mask><clipPath id="2d04e01226"><path d="M 0.414062 38 L 423.820312 38 L 423.820312 347.09375 L 0.414062 347.09375 Z M 0.414062 38 " clip-rule="nonzero"/></clipPath><clipPath id="2244c1e2cc"><path d="M 192 0.09375 L 232 0.09375 L 232 58 L 192 58 Z M 192 0.09375 " clip-rule="nonzero"/></clipPath><clipPath id="bc16badff0"><rect x="0" width="426" y="0" height="348"/></clipPath><clipPath id="8e30507d7c"><path d="M 627.3125 268 L 1050.71875 268 L 1050.71875 577 L 627.3125 577 Z M 627.3125 268 " clip-rule="nonzero"/></clipPath><clipPath id="3981e61c54"><path d="M 819 230.132812 L 859 230.132812 L 859 288 L 819 288 Z M 819 230.132812 " clip-rule="nonzero"/></clipPath></defs><g mask="url(#0bc4996450)"><g transform="matrix(1, 0, 0, 1, 646, 238)"><g clip-path="url(#bc16badff0)"><g clip-path="url(#2d04e01226)"><path fill="#000000" d="M 0.417969 135.035156 C 0.417969 81.800781 43.5 38.648438 96.644531 38.648438 L 327.589844 38.648438 C 380.734375 38.648438 423.816406 81.800781 423.816406 135.035156 L 423.816406 269.980469 C 423.816406 312.570312 389.351562 347.09375 346.835938 347.09375 L 337.214844 347.09375 C 312.984375 347.09375 290.164062 335.664062 275.628906 316.25 L 246.761719 277.691406 C 243.125 272.839844 237.421875 269.980469 231.363281 269.980469 L 185.339844 269.980469 C 178.703125 269.980469 172.535156 273.40625 169.019531 279.042969 L 149.171875 310.851562 C 135.105469 333.398438 110.433594 347.09375 83.890625 347.09375 L 77.402344 347.09375 C 34.886719 347.09375 0.417969 312.570312 0.417969 269.980469 Z M 96.644531 77.203125 C 64.757812 77.203125 38.910156 103.097656 38.910156 135.035156 L 38.910156 269.980469 C 38.910156 291.277344 56.144531 308.539062 77.402344 308.539062 L 83.890625 308.539062 C 97.164062 308.539062 109.496094 301.691406 116.53125 290.417969 L 136.378906 258.609375 C 146.929688 241.699219 165.429688 231.425781 185.339844 231.425781 L 231.363281 231.425781 C 249.535156 231.425781 266.648438 239.996094 277.550781 254.558594 L 306.421875 293.117188 C 313.6875 302.824219 325.097656 308.539062 337.214844 308.539062 L 346.835938 308.539062 C 368.09375 308.539062 385.328125 291.277344 385.328125 269.980469 L 385.328125 135.035156 C 385.328125 103.097656 359.476562 77.203125 327.589844 77.203125 Z M 96.644531 77.203125 " fill-opacity="1" fill-rule="evenodd"/></g><path fill="#000000" d="M 67.777344 154.316406 L 164.003906 154.316406 L 164.003906 192.871094 L 67.777344 192.871094 Z M 67.777344 154.316406 " fill-opacity="1" fill-rule="evenodd"/><path fill="#000000" d="M 96.644531 125.398438 L 135.136719 125.398438 L 135.136719 221.789062 L 96.644531 221.789062 Z M 96.644531 125.398438 " fill-opacity="1" fill-rule="evenodd"/><g clip-path="url(#2244c1e2cc)"><path fill="#000000" d="M 192.871094 0.09375 L 231.363281 0.09375 L 231.363281 57.925781 L 192.871094 57.925781 Z M 192.871094 0.09375 " fill-opacity="1" fill-rule="evenodd"/></g><path fill="#000000" d="M 279.476562 183.230469 L 317.96875 183.230469 L 317.96875 221.789062 L 279.476562 221.789062 Z M 279.476562 183.230469 " fill-opacity="1" fill-rule="evenodd"/><path fill="#000000" d="M 317.96875 125.398438 L 356.457031 125.398438 L 356.457031 163.953125 L 317.96875 163.953125 Z M 317.96875 125.398438 " fill-opacity="1" fill-rule="evenodd"/></g></g></g><g fill="#000000" fill-opacity="0.4"><g transform="translate(27.246225, 582.742438)"><g><path d="M 92.082031 0 L 261.371094 0 C 266.597656 0 271.421875 -4.824219 271.421875 -10.453125 L 271.824219 -182.960938 C 271.824219 -188.589844 267 -193.011719 261.371094 -193.011719 L 161.246094 -193.011719 C 156.019531 -193.011719 151.191406 -188.1875 151.191406 -182.558594 L 150.789062 -118.621094 C 150.789062 -112.992188 145.964844 -108.570312 140.738281 -108.570312 C 135.109375 -108.570312 130.683594 -112.992188 130.683594 -118.621094 L 130.683594 -203.066406 C 130.683594 -208.695312 135.109375 -213.117188 140.738281 -213.117188 L 261.371094 -213.117188 C 267 -213.117188 271.421875 -217.941406 271.421875 -223.570312 L 271.421875 -311.632812 C 271.421875 -317.261719 267 -321.6875 261.371094 -321.6875 L 92.082031 -321.6875 C 44.632812 -321.6875 10.050781 -287.105469 10.050781 -239.65625 L 10.050781 -82.03125 C 10.050781 -34.582031 44.632812 0 92.082031 0 Z M 92.082031 0 "/></g></g></g><g fill="#000000" fill-opacity="0.4"><g transform="translate(328.012062, 582.742438)"><g><path d="M 20.507812 0 L 120.632812 0 C 126.261719 0 130.683594 -4.421875 130.683594 -10.050781 L 130.683594 -66.347656 C 130.683594 -71.976562 135.109375 -76.402344 140.738281 -76.402344 C 146.367188 -76.402344 150.789062 -71.574219 150.789062 -65.945312 L 150.789062 -10.050781 C 150.789062 -4.421875 155.617188 0 161.246094 0 L 261.371094 0 C 267 0 271.421875 -4.421875 271.421875 -10.050781 L 271.421875 -239.65625 C 271.421875 -287.105469 236.839844 -321.6875 189.394531 -321.6875 L 92.082031 -321.6875 C 44.632812 -321.6875 10.050781 -287.105469 10.050781 -239.65625 L 10.050781 -10.050781 C 10.050781 -4.421875 14.878906 0 20.507812 0 Z M 140.738281 -172.90625 C 135.109375 -172.90625 130.683594 -177.328125 130.683594 -182.960938 L 130.683594 -215.128906 C 130.683594 -220.757812 135.109375 -225.179688 140.738281 -225.179688 C 146.367188 -225.179688 150.789062 -220.757812 150.789062 -215.128906 L 150.789062 -182.960938 C 150.789062 -177.328125 146.367188 -172.90625 140.738281 -172.90625 Z M 140.738281 -172.90625 "/></g></g></g><g fill="#ffffff" fill-opacity="1"><g transform="translate(9.474755, 564.970969)"><g><path d="M 92.082031 0 L 261.371094 0 C 266.597656 0 271.421875 -4.824219 271.421875 -10.453125 L 271.824219 -182.960938 C 271.824219 -188.589844 267 -193.011719 261.371094 -193.011719 L 161.246094 -193.011719 C 156.019531 -193.011719 151.191406 -188.1875 151.191406 -182.558594 L 150.789062 -118.621094 C 150.789062 -112.992188 145.964844 -108.570312 140.738281 -108.570312 C 135.109375 -108.570312 130.683594 -112.992188 130.683594 -118.621094 L 130.683594 -203.066406 C 130.683594 -208.695312 135.109375 -213.117188 140.738281 -213.117188 L 261.371094 -213.117188 C 267 -213.117188 271.421875 -217.941406 271.421875 -223.570312 L 271.421875 -311.632812 C 271.421875 -317.261719 267 -321.6875 261.371094 -321.6875 L 92.082031 -321.6875 C 44.632812 -321.6875 10.050781 -287.105469 10.050781 -239.65625 L 10.050781 -82.03125 C 10.050781 -34.582031 44.632812 0 92.082031 0 Z M 92.082031 0 "/></g></g></g><g fill="#ffffff" fill-opacity="1"><g transform="translate(310.240592, 564.970969)"><g><path d="M 20.507812 0 L 120.632812 0 C 126.261719 0 130.683594 -4.421875 130.683594 -10.050781 L 130.683594 -66.347656 C 130.683594 -71.976562 135.109375 -76.402344 140.738281 -76.402344 C 146.367188 -76.402344 150.789062 -71.574219 150.789062 -65.945312 L 150.789062 -10.050781 C 150.789062 -4.421875 155.617188 0 161.246094 0 L 261.371094 0 C 267 0 271.421875 -4.421875 271.421875 -10.050781 L 271.421875 -239.65625 C 271.421875 -287.105469 236.839844 -321.6875 189.394531 -321.6875 L 92.082031 -321.6875 C 44.632812 -321.6875 10.050781 -287.105469 10.050781 -239.65625 L 10.050781 -10.050781 C 10.050781 -4.421875 14.878906 0 20.507812 0 Z M 140.738281 -172.90625 C 135.109375 -172.90625 130.683594 -177.328125 130.683594 -182.960938 L 130.683594 -215.128906 C 130.683594 -220.757812 135.109375 -225.179688 140.738281 -225.179688 C 146.367188 -225.179688 150.789062 -220.757812 150.789062 -215.128906 L 150.789062 -182.960938 C 150.789062 -177.328125 146.367188 -172.90625 140.738281 -172.90625 Z M 140.738281 -172.90625 "/></g></g></g><g fill="#000000" fill-opacity="0.4"><g transform="translate(628.38094, 582.742438)"><g/></g></g><g fill="#000000" fill-opacity="0.4"><g transform="translate(747.803554, 582.742438)"><g/></g></g><g fill="#000000" fill-opacity="0.4"><g transform="translate(867.226168, 582.742438)"><g/></g></g><g fill="#000000" fill-opacity="0.4"><g transform="translate(986.648782, 582.742438)"><g/></g></g><g fill="#ffffff" fill-opacity="1"><g transform="translate(610.609471, 564.970969)"><g/></g></g><g fill="#ffffff" fill-opacity="1"><g transform="translate(730.032084, 564.970969)"><g/></g></g><g fill="#ffffff" fill-opacity="1"><g transform="translate(849.454698, 564.970969)"><g/></g></g><g fill="#ffffff" fill-opacity="1"><g transform="translate(968.877312, 564.970969)"><g/></g></g><g fill="#000000" fill-opacity="0.4"><g transform="translate(1106.080325, 582.742438)"><g><path d="M 20.507812 0 L 322.089844 0 C 327.71875 0 332.140625 -4.421875 332.140625 -10.050781 L 332.140625 -86.453125 C 332.140625 -92.082031 327.316406 -96.507812 321.6875 -96.507812 L 140.738281 -96.507812 C 135.109375 -96.507812 130.683594 -100.929688 130.683594 -106.558594 C 130.683594 -112.1875 135.109375 -116.613281 140.738281 -116.613281 L 306.003906 -116.613281 C 311.632812 -116.613281 316.058594 -121.035156 316.058594 -126.664062 L 316.058594 -195.023438 C 316.058594 -200.652344 311.230469 -205.074219 305.601562 -205.074219 L 140.738281 -205.074219 C 135.109375 -205.074219 130.683594 -209.5 130.683594 -215.128906 C 130.683594 -220.757812 135.109375 -225.179688 140.738281 -225.179688 L 322.089844 -225.179688 C 327.71875 -225.179688 332.140625 -229.605469 332.140625 -235.234375 L 332.140625 -311.632812 C 332.140625 -317.261719 327.71875 -321.6875 322.089844 -321.6875 L 20.105469 -321.6875 C 14.476562 -321.6875 10.050781 -317.261719 10.050781 -311.632812 L 10.050781 -10.050781 C 10.050781 -4.421875 14.878906 0 20.507812 0 Z M 20.507812 0 "/></g></g></g><g fill="#ffffff" fill-opacity="1"><g transform="translate(1088.308856, 564.970969)"><g><path d="M 20.507812 0 L 322.089844 0 C 327.71875 0 332.140625 -4.421875 332.140625 -10.050781 L 332.140625 -86.453125 C 332.140625 -92.082031 327.316406 -96.507812 321.6875 -96.507812 L 140.738281 -96.507812 C 135.109375 -96.507812 130.683594 -100.929688 130.683594 -106.558594 C 130.683594 -112.1875 135.109375 -116.613281 140.738281 -116.613281 L 306.003906 -116.613281 C 311.632812 -116.613281 316.058594 -121.035156 316.058594 -126.664062 L 316.058594 -195.023438 C 316.058594 -200.652344 311.230469 -205.074219 305.601562 -205.074219 L 140.738281 -205.074219 C 135.109375 -205.074219 130.683594 -209.5 130.683594 -215.128906 C 130.683594 -220.757812 135.109375 -225.179688 140.738281 -225.179688 L 322.089844 -225.179688 C 327.71875 -225.179688 332.140625 -229.605469 332.140625 -235.234375 L 332.140625 -311.632812 C 332.140625 -317.261719 327.71875 -321.6875 322.089844 -321.6875 L 20.105469 -321.6875 C 14.476562 -321.6875 10.050781 -317.261719 10.050781 -311.632812 L 10.050781 -10.050781 C 10.050781 -4.421875 14.878906 0 20.507812 0 Z M 20.507812 0 "/></g></g></g><g clip-path="url(#8e30507d7c)"><path fill="#5e2dbf" d="M 627.320312 365 C 627.320312 311.796875 670.449219 268.667969 723.652344 268.667969 L 954.855469 268.667969 C 1008.058594 268.667969 1051.1875 311.796875 1051.1875 365 L 1051.1875 499.867188 C 1051.1875 542.429688 1016.683594 576.9375 974.121094 576.9375 L 964.488281 576.9375 C 940.230469 576.9375 917.386719 565.515625 902.835938 546.109375 L 873.933594 507.574219 C 870.292969 502.722656 864.585938 499.867188 858.519531 499.867188 L 812.445312 499.867188 C 805.800781 499.867188 799.625 503.289062 796.105469 508.925781 L 776.238281 540.714844 C 762.152344 563.246094 737.457031 576.9375 710.882812 576.9375 L 704.386719 576.9375 C 661.824219 576.9375 627.320312 542.429688 627.320312 499.867188 Z M 723.652344 307.199219 C 691.730469 307.199219 665.851562 333.078125 665.851562 365 L 665.851562 499.867188 C 665.851562 521.152344 683.105469 538.402344 704.386719 538.402344 L 710.882812 538.402344 C 724.167969 538.402344 736.519531 531.558594 743.558594 520.292969 L 763.429688 488.5 C 773.992188 471.601562 792.515625 461.335938 812.445312 461.335938 L 858.519531 461.335938 C 876.714844 461.335938 893.84375 469.902344 904.761719 484.457031 L 933.660156 522.988281 C 940.9375 532.691406 952.359375 538.402344 964.488281 538.402344 L 974.121094 538.402344 C 995.402344 538.402344 1012.65625 521.152344 1012.65625 499.867188 L 1012.65625 365 C 1012.65625 333.078125 986.777344 307.199219 954.855469 307.199219 Z M 723.652344 307.199219 " fill-opacity="1" fill-rule="evenodd"/></g><path fill="#5e2dbf" d="M 694.753906 384.269531 L 791.085938 384.269531 L 791.085938 422.800781 L 694.753906 422.800781 Z M 694.753906 384.269531 " fill-opacity="1" fill-rule="evenodd"/><path fill="#5e2dbf" d="M 723.652344 355.367188 L 762.1875 355.367188 L 762.1875 451.703125 L 723.652344 451.703125 Z M 723.652344 355.367188 " fill-opacity="1" fill-rule="evenodd"/><g clip-path="url(#3981e61c54)"><path fill="#5e2dbf" d="M 819.988281 230.132812 L 858.519531 230.132812 L 858.519531 287.933594 L 819.988281 287.933594 Z M 819.988281 230.132812 " fill-opacity="1" fill-rule="evenodd"/></g><path fill="#5e2dbf" d="M 906.6875 413.167969 L 945.222656 413.167969 L 945.222656 451.703125 L 906.6875 451.703125 Z M 906.6875 413.167969 " fill-opacity="1" fill-rule="evenodd"/><path fill="#5e2dbf" d="M 945.222656 355.367188 L 983.753906 355.367188 L 983.753906 393.902344 L 945.222656 393.902344 Z M 945.222656 355.367188 " fill-opacity="1" fill-rule="evenodd"/></svg>