<svg xmlns="http://www.w3.org/2000/svg" xmlns:xlink="http://www.w3.org/1999/xlink" width="1080" zoomAndPan="magnify" viewBox="0 0 810 809.999993" height="1080" preserveAspectRatio="xMidYMid meet" version="1.0"><defs><filter x="0%" y="0%" width="100%" height="100%" id="e21cb219bf"><feColorMatrix values="0 0 0 0 1 0 0 0 0 1 0 0 0 0 1 0 0 0 1 0" color-interpolation-filters="sRGB"/></filter><mask id="f63bbb8708"><g filter="url(#e21cb219bf)"><rect x="-81" width="972" fill="#000000" y="-80.999999" height="971.999992" fill-opacity="0.4"/></g></mask><clipPath id="09b4b0d338"><path d="M 0.941406 57 L 620.277344 57 L 620.277344 508.738281 L 0.941406 508.738281 Z M 0.941406 57 " clip-rule="nonzero"/></clipPath><clipPath id="a1c120127c"><path d="M 282 1.160156 L 339 1.160156 L 339 86 L 282 86 Z M 282 1.160156 " clip-rule="nonzero"/></clipPath><clipPath id="d30a3f6191"><rect x="0" width="623" y="0" height="509"/></clipPath><clipPath id="45d82f91d6"><path d="M 81 201 L 700.335938 201 L 700.335938 653 L 81 653 Z M 81 201 " clip-rule="nonzero"/></clipPath><clipPath id="c88c1b8e83"><path d="M 362 145.519531 L 420 145.519531 L 420 231 L 362 231 Z M 362 145.519531 " clip-rule="nonzero"/></clipPath></defs><g mask="url(#f63bbb8708)"><g transform="matrix(1, 0, 0, 1, 108, 156)"><g clip-path="url(#d30a3f6191)"><g clip-path="url(#09b4b0d338)"><path fill="#000000" d="M 0.945312 198.550781 C 0.945312 120.683594 63.964844 57.558594 141.703125 57.558594 L 479.515625 57.558594 C 557.25 57.558594 620.269531 120.683594 620.269531 198.550781 L 620.269531 395.941406 C 620.269531 458.234375 569.855469 508.738281 507.664062 508.738281 L 493.589844 508.738281 C 458.148438 508.738281 424.773438 492.019531 403.507812 463.617188 L 361.28125 407.222656 C 355.960938 400.121094 347.621094 395.941406 338.757812 395.941406 L 271.4375 395.941406 C 261.730469 395.941406 252.707031 400.949219 247.5625 409.195312 L 218.53125 455.722656 C 197.957031 488.703125 161.871094 508.738281 123.042969 508.738281 L 113.550781 508.738281 C 51.359375 508.738281 0.945312 458.234375 0.945312 395.941406 Z M 141.703125 113.953125 C 95.058594 113.953125 57.25 151.828125 57.25 198.550781 L 57.25 395.941406 C 57.25 427.089844 82.457031 452.339844 113.550781 452.339844 L 123.042969 452.339844 C 142.457031 452.339844 160.5 442.324219 170.789062 425.832031 L 199.820312 379.304688 C 215.253906 354.570312 242.316406 339.542969 271.4375 339.542969 L 338.757812 339.542969 C 365.34375 339.542969 390.371094 352.082031 406.320312 373.382812 L 448.546875 429.78125 C 459.179688 443.980469 475.871094 452.339844 493.589844 452.339844 L 507.664062 452.339844 C 538.761719 452.339844 563.96875 427.089844 563.96875 395.941406 L 563.96875 198.550781 C 563.96875 151.828125 526.160156 113.953125 479.515625 113.953125 Z M 141.703125 113.953125 " fill-opacity="1" fill-rule="evenodd"/></g><path fill="#000000" d="M 99.476562 226.75 L 240.230469 226.75 L 240.230469 283.148438 L 99.476562 283.148438 Z M 99.476562 226.75 " fill-opacity="1" fill-rule="evenodd"/><path fill="#000000" d="M 141.703125 184.453125 L 198.003906 184.453125 L 198.003906 325.445312 L 141.703125 325.445312 Z M 141.703125 184.453125 " fill-opacity="1" fill-rule="evenodd"/><g clip-path="url(#a1c120127c)"><path fill="#000000" d="M 282.457031 1.160156 L 338.757812 1.160156 L 338.757812 85.757812 L 282.457031 85.757812 Z M 282.457031 1.160156 " fill-opacity="1" fill-rule="evenodd"/></g><path fill="#000000" d="M 409.136719 269.046875 L 465.4375 269.046875 L 465.4375 325.445312 L 409.136719 325.445312 Z M 409.136719 269.046875 " fill-opacity="1" fill-rule="evenodd"/><path fill="#000000" d="M 465.4375 184.453125 L 521.742188 184.453125 L 521.742188 240.847656 L 465.4375 240.847656 Z M 465.4375 184.453125 " fill-opacity="1" fill-rule="evenodd"/></g></g></g><g clip-path="url(#45d82f91d6)"><path fill="#ffffff" d="M 81.007812 342.796875 C 81.007812 264.972656 144.09375 201.882812 221.917969 201.882812 L 560.109375 201.882812 C 637.933594 201.882812 701.023438 264.972656 701.023438 342.796875 L 701.023438 540.074219 C 701.023438 602.332031 650.550781 652.804688 588.292969 652.804688 L 574.199219 652.804688 C 538.71875 652.804688 505.304688 636.097656 484.015625 607.710938 L 441.742188 551.347656 C 436.417969 544.25 428.066406 540.074219 419.195312 540.074219 L 351.796875 540.074219 C 342.082031 540.074219 333.050781 545.078125 327.898438 553.320312 L 298.835938 599.820312 C 278.234375 632.78125 242.109375 652.804688 203.242188 652.804688 L 193.734375 652.804688 C 131.476562 652.804688 81.007812 602.332031 81.007812 540.074219 Z M 221.917969 258.25 C 175.222656 258.25 137.371094 296.101562 137.371094 342.796875 L 137.371094 540.074219 C 137.371094 571.203125 162.605469 596.4375 193.734375 596.4375 L 203.242188 596.4375 C 222.675781 596.4375 240.738281 586.429688 251.039062 569.945312 L 280.101562 523.445312 C 295.550781 498.726562 322.648438 483.707031 351.796875 483.707031 L 419.195312 483.707031 C 445.808594 483.707031 470.867188 496.238281 486.835938 517.527344 L 529.109375 573.894531 C 539.753906 588.085938 556.460938 596.4375 574.199219 596.4375 L 588.292969 596.4375 C 619.421875 596.4375 644.65625 571.203125 644.65625 540.074219 L 644.65625 342.796875 C 644.65625 296.101562 606.804688 258.25 560.109375 258.25 Z M 221.917969 258.25 " fill-opacity="1" fill-rule="evenodd"/></g><path fill="#ffffff" d="M 179.644531 370.976562 L 320.558594 370.976562 L 320.558594 427.34375 L 179.644531 427.34375 Z M 179.644531 370.976562 " fill-opacity="1" fill-rule="evenodd"/><path fill="#ffffff" d="M 221.917969 328.703125 L 278.285156 328.703125 L 278.285156 469.617188 L 221.917969 469.617188 Z M 221.917969 328.703125 " fill-opacity="1" fill-rule="evenodd"/><g clip-path="url(#c88c1b8e83)"><path fill="#ffffff" d="M 362.832031 145.519531 L 419.195312 145.519531 L 419.195312 230.066406 L 362.832031 230.066406 Z M 362.832031 145.519531 " fill-opacity="1" fill-rule="evenodd"/></g><path fill="#ffffff" d="M 489.652344 413.253906 L 546.019531 413.253906 L 546.019531 469.617188 L 489.652344 469.617188 Z M 489.652344 413.253906 " fill-opacity="1" fill-rule="evenodd"/><path fill="#ffffff" d="M 546.019531 328.703125 L 602.382812 328.703125 L 602.382812 385.070312 L 546.019531 385.070312 Z M 546.019531 328.703125 " fill-opacity="1" fill-rule="evenodd"/></svg>