<svg xmlns="http://www.w3.org/2000/svg" xmlns:xlink="http://www.w3.org/1999/xlink" width="1920" zoomAndPan="magnify" viewBox="0 0 1440 809.999993" height="1080" preserveAspectRatio="xMidYMid meet" version="1.0"><defs><filter x="0%" y="0%" width="100%" height="100%" id="c67af55dda"><feColorMatrix values="0 0 0 0 1 0 0 0 0 1 0 0 0 0 1 0 0 0 1 0" color-interpolation-filters="sRGB"/></filter><g/><mask id="bfa44ab4dc"><g filter="url(#c67af55dda)"><rect x="-144" width="1728" fill="#000000" y="-80.999999" height="971.999992" fill-opacity="0.4"/></g></mask><clipPath id="ee87bc3789"><path d="M 0.414062 39 L 423.820312 39 L 423.820312 347.941406 L 0.414062 347.941406 Z M 0.414062 39 " clip-rule="nonzero"/></clipPath><clipPath id="0605c2ed5d"><path d="M 192 0.9375 L 232 0.9375 L 232 59 L 192 59 Z M 192 0.9375 " clip-rule="nonzero"/></clipPath><clipPath id="75b3dad670"><rect x="0" width="426" y="0" height="349"/></clipPath><clipPath id="8ac8469a2d"><path d="M 627.3125 114 L 1050.71875 114 L 1050.71875 422.980469 L 627.3125 422.980469 Z M 627.3125 114 " clip-rule="nonzero"/></clipPath><clipPath id="32210dc500"><path d="M 819 75.980469 L 859 75.980469 L 859 134 L 819 134 Z M 819 75.980469 " clip-rule="nonzero"/></clipPath></defs><g mask="url(#bfa44ab4dc)"><g transform="matrix(1, 0, 0, 1, 646, 83)"><g clip-path="url(#75b3dad670)"><g clip-path="url(#ee87bc3789)"><path fill="#000000" d="M 0.417969 135.882812 C 0.417969 82.648438 43.5 39.496094 96.644531 39.496094 L 327.589844 39.496094 C 380.734375 39.496094 423.816406 82.648438 423.816406 135.882812 L 423.816406 270.828125 C 423.816406 313.414062 389.351562 347.941406 346.835938 347.941406 L 337.214844 347.941406 C 312.984375 347.941406 290.164062 336.511719 275.628906 317.097656 L 246.761719 278.539062 C 243.125 273.6875 237.421875 270.828125 231.363281 270.828125 L 185.339844 270.828125 C 178.703125 270.828125 172.535156 274.253906 169.019531 279.890625 L 149.171875 311.699219 C 135.105469 334.242188 110.433594 347.941406 83.890625 347.941406 L 77.402344 347.941406 C 34.886719 347.941406 0.417969 313.414062 0.417969 270.828125 Z M 96.644531 78.050781 C 64.757812 78.050781 38.910156 103.945312 38.910156 135.882812 L 38.910156 270.828125 C 38.910156 292.125 56.144531 309.386719 77.402344 309.386719 L 83.890625 309.386719 C 97.164062 309.386719 109.496094 302.539062 116.53125 291.261719 L 136.378906 259.457031 C 146.929688 242.546875 165.429688 232.273438 185.339844 232.273438 L 231.363281 232.273438 C 249.535156 232.273438 266.648438 240.84375 277.550781 255.40625 L 306.421875 293.960938 C 313.6875 303.671875 325.097656 309.386719 337.214844 309.386719 L 346.835938 309.386719 C 368.09375 309.386719 385.328125 292.125 385.328125 270.828125 L 385.328125 135.882812 C 385.328125 103.945312 359.476562 78.050781 327.589844 78.050781 Z M 96.644531 78.050781 " fill-opacity="1" fill-rule="evenodd"/></g><path fill="#000000" d="M 67.777344 155.160156 L 164.003906 155.160156 L 164.003906 193.71875 L 67.777344 193.71875 Z M 67.777344 155.160156 " fill-opacity="1" fill-rule="evenodd"/><path fill="#000000" d="M 96.644531 126.246094 L 135.136719 126.246094 L 135.136719 222.632812 L 96.644531 222.632812 Z M 96.644531 126.246094 " fill-opacity="1" fill-rule="evenodd"/><g clip-path="url(#0605c2ed5d)"><path fill="#000000" d="M 192.871094 0.9375 L 231.363281 0.9375 L 231.363281 58.773438 L 192.871094 58.773438 Z M 192.871094 0.9375 " fill-opacity="1" fill-rule="evenodd"/></g><path fill="#000000" d="M 279.476562 184.078125 L 317.96875 184.078125 L 317.96875 222.632812 L 279.476562 222.632812 Z M 279.476562 184.078125 " fill-opacity="1" fill-rule="evenodd"/><path fill="#000000" d="M 317.96875 126.246094 L 356.457031 126.246094 L 356.457031 164.800781 L 317.96875 164.800781 Z M 317.96875 126.246094 " fill-opacity="1" fill-rule="evenodd"/></g></g></g><g fill="#000000" fill-opacity="0.4"><g transform="translate(27.246225, 428.589403)"><g><path d="M 92.082031 0 L 261.371094 0 C 266.597656 0 271.421875 -4.824219 271.421875 -10.453125 L 271.824219 -182.960938 C 271.824219 -188.589844 267 -193.011719 261.371094 -193.011719 L 161.246094 -193.011719 C 156.019531 -193.011719 151.191406 -188.1875 151.191406 -182.558594 L 150.789062 -118.621094 C 150.789062 -112.992188 145.964844 -108.570312 140.738281 -108.570312 C 135.109375 -108.570312 130.683594 -112.992188 130.683594 -118.621094 L 130.683594 -203.066406 C 130.683594 -208.695312 135.109375 -213.117188 140.738281 -213.117188 L 261.371094 -213.117188 C 267 -213.117188 271.421875 -217.941406 271.421875 -223.570312 L 271.421875 -311.632812 C 271.421875 -317.261719 267 -321.6875 261.371094 -321.6875 L 92.082031 -321.6875 C 44.632812 -321.6875 10.050781 -287.105469 10.050781 -239.65625 L 10.050781 -82.03125 C 10.050781 -34.582031 44.632812 0 92.082031 0 Z M 92.082031 0 "/></g></g></g><g fill="#000000" fill-opacity="0.4"><g transform="translate(328.012062, 428.589403)"><g><path d="M 20.507812 0 L 120.632812 0 C 126.261719 0 130.683594 -4.421875 130.683594 -10.050781 L 130.683594 -66.347656 C 130.683594 -71.976562 135.109375 -76.402344 140.738281 -76.402344 C 146.367188 -76.402344 150.789062 -71.574219 150.789062 -65.945312 L 150.789062 -10.050781 C 150.789062 -4.421875 155.617188 0 161.246094 0 L 261.371094 0 C 267 0 271.421875 -4.421875 271.421875 -10.050781 L 271.421875 -239.65625 C 271.421875 -287.105469 236.839844 -321.6875 189.394531 -321.6875 L 92.082031 -321.6875 C 44.632812 -321.6875 10.050781 -287.105469 10.050781 -239.65625 L 10.050781 -10.050781 C 10.050781 -4.421875 14.878906 0 20.507812 0 Z M 140.738281 -172.90625 C 135.109375 -172.90625 130.683594 -177.328125 130.683594 -182.960938 L 130.683594 -215.128906 C 130.683594 -220.757812 135.109375 -225.179688 140.738281 -225.179688 C 146.367188 -225.179688 150.789062 -220.757812 150.789062 -215.128906 L 150.789062 -182.960938 C 150.789062 -177.328125 146.367188 -172.90625 140.738281 -172.90625 Z M 140.738281 -172.90625 "/></g></g></g><g fill="#ffffff" fill-opacity="1"><g transform="translate(9.474755, 410.817932)"><g><path d="M 92.082031 0 L 261.371094 0 C 266.597656 0 271.421875 -4.824219 271.421875 -10.453125 L 271.824219 -182.960938 C 271.824219 -188.589844 267 -193.011719 261.371094 -193.011719 L 161.246094 -193.011719 C 156.019531 -193.011719 151.191406 -188.1875 151.191406 -182.558594 L 150.789062 -118.621094 C 150.789062 -112.992188 145.964844 -108.570312 140.738281 -108.570312 C 135.109375 -108.570312 130.683594 -112.992188 130.683594 -118.621094 L 130.683594 -203.066406 C 130.683594 -208.695312 135.109375 -213.117188 140.738281 -213.117188 L 261.371094 -213.117188 C 267 -213.117188 271.421875 -217.941406 271.421875 -223.570312 L 271.421875 -311.632812 C 271.421875 -317.261719 267 -321.6875 261.371094 -321.6875 L 92.082031 -321.6875 C 44.632812 -321.6875 10.050781 -287.105469 10.050781 -239.65625 L 10.050781 -82.03125 C 10.050781 -34.582031 44.632812 0 92.082031 0 Z M 92.082031 0 "/></g></g></g><g fill="#ffffff" fill-opacity="1"><g transform="translate(310.240592, 410.817932)"><g><path d="M 20.507812 0 L 120.632812 0 C 126.261719 0 130.683594 -4.421875 130.683594 -10.050781 L 130.683594 -66.347656 C 130.683594 -71.976562 135.109375 -76.402344 140.738281 -76.402344 C 146.367188 -76.402344 150.789062 -71.574219 150.789062 -65.945312 L 150.789062 -10.050781 C 150.789062 -4.421875 155.617188 0 161.246094 0 L 261.371094 0 C 267 0 271.421875 -4.421875 271.421875 -10.050781 L 271.421875 -239.65625 C 271.421875 -287.105469 236.839844 -321.6875 189.394531 -321.6875 L 92.082031 -321.6875 C 44.632812 -321.6875 10.050781 -287.105469 10.050781 -239.65625 L 10.050781 -10.050781 C 10.050781 -4.421875 14.878906 0 20.507812 0 Z M 140.738281 -172.90625 C 135.109375 -172.90625 130.683594 -177.328125 130.683594 -182.960938 L 130.683594 -215.128906 C 130.683594 -220.757812 135.109375 -225.179688 140.738281 -225.179688 C 146.367188 -225.179688 150.789062 -220.757812 150.789062 -215.128906 L 150.789062 -182.960938 C 150.789062 -177.328125 146.367188 -172.90625 140.738281 -172.90625 Z M 140.738281 -172.90625 "/></g></g></g><g fill="#000000" fill-opacity="0.4"><g transform="translate(628.38094, 428.589403)"><g/></g></g><g fill="#000000" fill-opacity="0.4"><g transform="translate(747.803554, 428.589403)"><g/></g></g><g fill="#000000" fill-opacity="0.4"><g transform="translate(867.226168, 428.589403)"><g/></g></g><g fill="#000000" fill-opacity="0.4"><g transform="translate(986.648782, 428.589403)"><g/></g></g><g fill="#ffffff" fill-opacity="1"><g transform="translate(610.609471, 410.817932)"><g/></g></g><g fill="#ffffff" fill-opacity="1"><g transform="translate(730.032084, 410.817932)"><g/></g></g><g fill="#ffffff" fill-opacity="1"><g transform="translate(849.454698, 410.817932)"><g/></g></g><g fill="#ffffff" fill-opacity="1"><g transform="translate(968.877312, 410.817932)"><g/></g></g><g fill="#000000" fill-opacity="0.4"><g transform="translate(1106.080325, 428.589403)"><g><path d="M 20.507812 0 L 322.089844 0 C 327.71875 0 332.140625 -4.421875 332.140625 -10.050781 L 332.140625 -86.453125 C 332.140625 -92.082031 327.316406 -96.507812 321.6875 -96.507812 L 140.738281 -96.507812 C 135.109375 -96.507812 130.683594 -100.929688 130.683594 -106.558594 C 130.683594 -112.1875 135.109375 -116.613281 140.738281 -116.613281 L 306.003906 -116.613281 C 311.632812 -116.613281 316.058594 -121.035156 316.058594 -126.664062 L 316.058594 -195.023438 C 316.058594 -200.652344 311.230469 -205.074219 305.601562 -205.074219 L 140.738281 -205.074219 C 135.109375 -205.074219 130.683594 -209.5 130.683594 -215.128906 C 130.683594 -220.757812 135.109375 -225.179688 140.738281 -225.179688 L 322.089844 -225.179688 C 327.71875 -225.179688 332.140625 -229.605469 332.140625 -235.234375 L 332.140625 -311.632812 C 332.140625 -317.261719 327.71875 -321.6875 322.089844 -321.6875 L 20.105469 -321.6875 C 14.476562 -321.6875 10.050781 -317.261719 10.050781 -311.632812 L 10.050781 -10.050781 C 10.050781 -4.421875 14.878906 0 20.507812 0 Z M 20.507812 0 "/></g></g></g><g fill="#ffffff" fill-opacity="1"><g transform="translate(1088.308856, 410.817932)"><g><path d="M 20.507812 0 L 322.089844 0 C 327.71875 0 332.140625 -4.421875 332.140625 -10.050781 L 332.140625 -86.453125 C 332.140625 -92.082031 327.316406 -96.507812 321.6875 -96.507812 L 140.738281 -96.507812 C 135.109375 -96.507812 130.683594 -100.929688 130.683594 -106.558594 C 130.683594 -112.1875 135.109375 -116.613281 140.738281 -116.613281 L 306.003906 -116.613281 C 311.632812 -116.613281 316.058594 -121.035156 316.058594 -126.664062 L 316.058594 -195.023438 C 316.058594 -200.652344 311.230469 -205.074219 305.601562 -205.074219 L 140.738281 -205.074219 C 135.109375 -205.074219 130.683594 -209.5 130.683594 -215.128906 C 130.683594 -220.757812 135.109375 -225.179688 140.738281 -225.179688 L 322.089844 -225.179688 C 327.71875 -225.179688 332.140625 -229.605469 332.140625 -235.234375 L 332.140625 -311.632812 C 332.140625 -317.261719 327.71875 -321.6875 322.089844 -321.6875 L 20.105469 -321.6875 C 14.476562 -321.6875 10.050781 -317.261719 10.050781 -311.632812 L 10.050781 -10.050781 C 10.050781 -4.421875 14.878906 0 20.507812 0 Z M 20.507812 0 "/></g></g></g><g clip-path="url(#8ac8469a2d)"><path fill="#5e2dbf" d="M 627.320312 210.847656 C 627.320312 157.644531 670.449219 114.515625 723.652344 114.515625 L 954.855469 114.515625 C 1008.058594 114.515625 1051.1875 157.644531 1051.1875 210.847656 L 1051.1875 345.714844 C 1051.1875 388.277344 1016.683594 422.78125 974.121094 422.78125 L 964.488281 422.78125 C 940.230469 422.78125 917.386719 411.363281 902.835938 391.957031 L 873.933594 353.421875 C 870.292969 348.570312 864.585938 345.714844 858.519531 345.714844 L 812.445312 345.714844 C 805.800781 345.714844 799.625 349.136719 796.105469 354.769531 L 776.238281 386.5625 C 762.152344 409.09375 737.457031 422.78125 710.882812 422.78125 L 704.386719 422.78125 C 661.824219 422.78125 627.320312 388.277344 627.320312 345.714844 Z M 723.652344 153.046875 C 691.730469 153.046875 665.851562 178.925781 665.851562 210.847656 L 665.851562 345.714844 C 665.851562 366.996094 683.105469 384.25 704.386719 384.25 L 710.882812 384.25 C 724.167969 384.25 736.519531 377.40625 743.558594 366.136719 L 763.429688 334.347656 C 773.992188 317.449219 792.515625 307.183594 812.445312 307.183594 L 858.519531 307.183594 C 876.714844 307.183594 893.84375 315.746094 904.761719 330.300781 L 933.660156 368.835938 C 940.9375 378.539062 952.359375 384.25 964.488281 384.25 L 974.121094 384.25 C 995.402344 384.25 1012.65625 366.996094 1012.65625 345.714844 L 1012.65625 210.847656 C 1012.65625 178.925781 986.777344 153.046875 954.855469 153.046875 Z M 723.652344 153.046875 " fill-opacity="1" fill-rule="evenodd"/></g><path fill="#5e2dbf" d="M 694.753906 230.113281 L 791.085938 230.113281 L 791.085938 268.648438 L 694.753906 268.648438 Z M 694.753906 230.113281 " fill-opacity="1" fill-rule="evenodd"/><path fill="#5e2dbf" d="M 723.652344 201.214844 L 762.1875 201.214844 L 762.1875 297.546875 L 723.652344 297.546875 Z M 723.652344 201.214844 " fill-opacity="1" fill-rule="evenodd"/><g clip-path="url(#32210dc500)"><path fill="#5e2dbf" d="M 819.988281 75.980469 L 858.519531 75.980469 L 858.519531 133.78125 L 819.988281 133.78125 Z M 819.988281 75.980469 " fill-opacity="1" fill-rule="evenodd"/></g><path fill="#5e2dbf" d="M 906.6875 259.015625 L 945.222656 259.015625 L 945.222656 297.546875 L 906.6875 297.546875 Z M 906.6875 259.015625 " fill-opacity="1" fill-rule="evenodd"/><path fill="#5e2dbf" d="M 945.222656 201.214844 L 983.753906 201.214844 L 983.753906 239.746094 L 945.222656 239.746094 Z M 945.222656 201.214844 " fill-opacity="1" fill-rule="evenodd"/><g fill="#000000" fill-opacity="0.4"><g transform="translate(19.333273, 745.425535)"><g><path d="M 17.167969 0 L 161.714844 0 C 202.230469 0 231.757812 -29.527344 231.757812 -70.042969 L 231.757812 -204.632812 C 231.757812 -245.148438 202.230469 -274.675781 161.714844 -274.675781 L 17.167969 -274.675781 C 12.359375 -274.675781 8.582031 -270.898438 8.582031 -266.09375 L 8.582031 -8.582031 C 8.582031 -3.777344 12.359375 0 17.167969 0 Z M 120.171875 -78.96875 C 115.363281 -78.96875 111.585938 -82.746094 111.585938 -87.554688 L 111.585938 -187.125 C 111.585938 -191.929688 115.363281 -195.707031 120.171875 -195.707031 C 124.976562 -195.707031 128.753906 -191.929688 128.753906 -187.125 L 128.753906 -87.554688 C 128.753906 -82.746094 124.976562 -78.96875 120.171875 -78.96875 Z M 120.171875 -78.96875 "/></g></g></g><g fill="#000000" fill-opacity="0.4"><g transform="translate(267.894393, 745.425535)"><g><path d="M 78.625 0 L 161.714844 0 C 202.230469 0 231.757812 -29.527344 231.757812 -70.042969 L 231.757812 -204.632812 C 231.757812 -245.148438 202.230469 -274.675781 161.714844 -274.675781 L 78.625 -274.675781 C 38.113281 -274.675781 8.582031 -245.148438 8.582031 -204.632812 L 8.582031 -70.042969 C 8.582031 -29.527344 38.113281 0 78.625 0 Z M 120.171875 -78.96875 C 115.363281 -78.96875 111.585938 -82.746094 111.585938 -87.554688 L 111.585938 -187.125 C 111.585938 -191.929688 115.363281 -195.707031 120.171875 -195.707031 C 124.976562 -195.707031 128.753906 -191.929688 128.753906 -187.125 L 128.753906 -87.554688 C 128.753906 -82.746094 124.976562 -78.96875 120.171875 -78.96875 Z M 120.171875 -78.96875 "/></g></g></g><g fill="#000000" fill-opacity="0.4"><g transform="translate(516.455513, 745.425535)"><g/></g></g><g fill="#000000" fill-opacity="0.4"><g transform="translate(610.524853, 745.425535)"><g><path d="M 17.511719 0 L 103.003906 0 C 107.8125 0 111.585938 -3.777344 111.585938 -8.582031 L 111.585938 -56.652344 C 111.585938 -61.457031 115.363281 -65.234375 120.171875 -65.234375 C 124.976562 -65.234375 128.753906 -61.117188 128.753906 -56.308594 L 128.753906 -8.582031 C 128.753906 -3.777344 132.875 0 137.683594 0 L 223.175781 0 C 227.980469 0 231.757812 -3.777344 231.757812 -8.582031 L 231.757812 -204.632812 C 231.757812 -245.148438 202.230469 -274.675781 161.714844 -274.675781 L 78.625 -274.675781 C 38.113281 -274.675781 8.582031 -245.148438 8.582031 -204.632812 L 8.582031 -8.582031 C 8.582031 -3.777344 12.703125 0 17.511719 0 Z M 120.171875 -147.640625 C 115.363281 -147.640625 111.585938 -151.414062 111.585938 -156.222656 L 111.585938 -183.691406 C 111.585938 -188.496094 115.363281 -192.273438 120.171875 -192.273438 C 124.976562 -192.273438 128.753906 -188.496094 128.753906 -183.691406 L 128.753906 -156.222656 C 128.753906 -151.414062 124.976562 -147.640625 120.171875 -147.640625 Z M 120.171875 -147.640625 "/></g></g></g><g fill="#000000" fill-opacity="0.4"><g transform="translate(859.085953, 745.425535)"><g><path d="M 17.511719 0 L 103.003906 0 C 107.8125 0 111.585938 -3.777344 111.585938 -8.582031 L 111.585938 -161.371094 C 111.585938 -166.179688 115.363281 -169.957031 120.171875 -169.957031 C 124.976562 -169.957031 128.753906 -166.179688 128.753906 -161.371094 L 128.753906 -8.242188 C 128.753906 -3.089844 132.53125 0 137.683594 0 L 326.179688 0 C 330.984375 0 334.761719 -3.777344 334.761719 -8.582031 L 334.761719 -266.09375 C 334.761719 -270.898438 330.984375 -274.675781 326.179688 -274.675781 L 240.34375 -274.675781 C 235.535156 -274.675781 231.757812 -270.898438 231.757812 -266.09375 L 231.757812 -110.902344 C 231.757812 -106.09375 227.980469 -102.316406 223.175781 -102.316406 C 218.367188 -102.316406 214.589844 -106.09375 214.589844 -110.902344 L 214.589844 -266.4375 C 214.589844 -271.929688 210.8125 -274.675781 205.664062 -274.675781 L 17.167969 -274.675781 C 12.359375 -274.675781 8.582031 -270.898438 8.582031 -266.09375 L 8.582031 -8.582031 C 8.582031 -3.777344 12.703125 0 17.511719 0 Z M 17.511719 0 "/></g></g></g><g fill="#000000" fill-opacity="0.4"><g transform="translate(1210.641612, 745.425535)"><g><path d="M 78.625 0 L 161.714844 0 C 202.230469 0 231.757812 -29.527344 231.757812 -70.042969 L 231.757812 -204.632812 C 231.757812 -245.148438 202.230469 -274.675781 161.714844 -274.675781 L 78.625 -274.675781 C 38.113281 -274.675781 8.582031 -245.148438 8.582031 -204.632812 L 8.582031 -70.042969 C 8.582031 -29.527344 38.113281 0 78.625 0 Z M 120.171875 -78.96875 C 115.363281 -78.96875 111.585938 -82.746094 111.585938 -87.554688 L 111.585938 -187.125 C 111.585938 -191.929688 115.363281 -195.707031 120.171875 -195.707031 C 124.976562 -195.707031 128.753906 -191.929688 128.753906 -187.125 L 128.753906 -87.554688 C 128.753906 -82.746094 124.976562 -78.96875 120.171875 -78.96875 Z M 120.171875 -78.96875 "/></g></g></g><g fill="#ffffff" fill-opacity="1"><g transform="translate(4.158953, 730.251219)"><g><path d="M 17.167969 0 L 161.714844 0 C 202.230469 0 231.757812 -29.527344 231.757812 -70.042969 L 231.757812 -204.632812 C 231.757812 -245.148438 202.230469 -274.675781 161.714844 -274.675781 L 17.167969 -274.675781 C 12.359375 -274.675781 8.582031 -270.898438 8.582031 -266.09375 L 8.582031 -8.582031 C 8.582031 -3.777344 12.359375 0 17.167969 0 Z M 120.171875 -78.96875 C 115.363281 -78.96875 111.585938 -82.746094 111.585938 -87.554688 L 111.585938 -187.125 C 111.585938 -191.929688 115.363281 -195.707031 120.171875 -195.707031 C 124.976562 -195.707031 128.753906 -191.929688 128.753906 -187.125 L 128.753906 -87.554688 C 128.753906 -82.746094 124.976562 -78.96875 120.171875 -78.96875 Z M 120.171875 -78.96875 "/></g></g></g><g fill="#ffffff" fill-opacity="1"><g transform="translate(252.720073, 730.251219)"><g><path d="M 78.625 0 L 161.714844 0 C 202.230469 0 231.757812 -29.527344 231.757812 -70.042969 L 231.757812 -204.632812 C 231.757812 -245.148438 202.230469 -274.675781 161.714844 -274.675781 L 78.625 -274.675781 C 38.113281 -274.675781 8.582031 -245.148438 8.582031 -204.632812 L 8.582031 -70.042969 C 8.582031 -29.527344 38.113281 0 78.625 0 Z M 120.171875 -78.96875 C 115.363281 -78.96875 111.585938 -82.746094 111.585938 -87.554688 L 111.585938 -187.125 C 111.585938 -191.929688 115.363281 -195.707031 120.171875 -195.707031 C 124.976562 -195.707031 128.753906 -191.929688 128.753906 -187.125 L 128.753906 -87.554688 C 128.753906 -82.746094 124.976562 -78.96875 120.171875 -78.96875 Z M 120.171875 -78.96875 "/></g></g></g><g fill="#ffffff" fill-opacity="1"><g transform="translate(501.281193, 730.251219)"><g/></g></g><g fill="#ffffff" fill-opacity="1"><g transform="translate(595.350534, 730.251219)"><g><path d="M 17.511719 0 L 103.003906 0 C 107.8125 0 111.585938 -3.777344 111.585938 -8.582031 L 111.585938 -56.652344 C 111.585938 -61.457031 115.363281 -65.234375 120.171875 -65.234375 C 124.976562 -65.234375 128.753906 -61.117188 128.753906 -56.308594 L 128.753906 -8.582031 C 128.753906 -3.777344 132.875 0 137.683594 0 L 223.175781 0 C 227.980469 0 231.757812 -3.777344 231.757812 -8.582031 L 231.757812 -204.632812 C 231.757812 -245.148438 202.230469 -274.675781 161.714844 -274.675781 L 78.625 -274.675781 C 38.113281 -274.675781 8.582031 -245.148438 8.582031 -204.632812 L 8.582031 -8.582031 C 8.582031 -3.777344 12.703125 0 17.511719 0 Z M 120.171875 -147.640625 C 115.363281 -147.640625 111.585938 -151.414062 111.585938 -156.222656 L 111.585938 -183.691406 C 111.585938 -188.496094 115.363281 -192.273438 120.171875 -192.273438 C 124.976562 -192.273438 128.753906 -188.496094 128.753906 -183.691406 L 128.753906 -156.222656 C 128.753906 -151.414062 124.976562 -147.640625 120.171875 -147.640625 Z M 120.171875 -147.640625 "/></g></g></g><g fill="#ffffff" fill-opacity="1"><g transform="translate(843.911634, 730.251219)"><g><path d="M 17.511719 0 L 103.003906 0 C 107.8125 0 111.585938 -3.777344 111.585938 -8.582031 L 111.585938 -161.371094 C 111.585938 -166.179688 115.363281 -169.957031 120.171875 -169.957031 C 124.976562 -169.957031 128.753906 -166.179688 128.753906 -161.371094 L 128.753906 -8.242188 C 128.753906 -3.089844 132.53125 0 137.683594 0 L 326.179688 0 C 330.984375 0 334.761719 -3.777344 334.761719 -8.582031 L 334.761719 -266.09375 C 334.761719 -270.898438 330.984375 -274.675781 326.179688 -274.675781 L 240.34375 -274.675781 C 235.535156 -274.675781 231.757812 -270.898438 231.757812 -266.09375 L 231.757812 -110.902344 C 231.757812 -106.09375 227.980469 -102.316406 223.175781 -102.316406 C 218.367188 -102.316406 214.589844 -106.09375 214.589844 -110.902344 L 214.589844 -266.4375 C 214.589844 -271.929688 210.8125 -274.675781 205.664062 -274.675781 L 17.167969 -274.675781 C 12.359375 -274.675781 8.582031 -270.898438 8.582031 -266.09375 L 8.582031 -8.582031 C 8.582031 -3.777344 12.703125 0 17.511719 0 Z M 17.511719 0 "/></g></g></g><g fill="#ffffff" fill-opacity="1"><g transform="translate(1195.467292, 730.251219)"><g><path d="M 78.625 0 L 161.714844 0 C 202.230469 0 231.757812 -29.527344 231.757812 -70.042969 L 231.757812 -204.632812 C 231.757812 -245.148438 202.230469 -274.675781 161.714844 -274.675781 L 78.625 -274.675781 C 38.113281 -274.675781 8.582031 -245.148438 8.582031 -204.632812 L 8.582031 -70.042969 C 8.582031 -29.527344 38.113281 0 78.625 0 Z M 120.171875 -78.96875 C 115.363281 -78.96875 111.585938 -82.746094 111.585938 -87.554688 L 111.585938 -187.125 C 111.585938 -191.929688 115.363281 -195.707031 120.171875 -195.707031 C 124.976562 -195.707031 128.753906 -191.929688 128.753906 -187.125 L 128.753906 -87.554688 C 128.753906 -82.746094 124.976562 -78.96875 120.171875 -78.96875 Z M 120.171875 -78.96875 "/></g></g></g></svg>